<mxfile host="app.diagrams.net" agent="Mozilla/5.0 (Windows NT 10.0; Win64; x64) AppleWebKit/537.36 (KHTML, like Gecko) Chrome/131.0.0.0 Safari/537.36" version="25.0.3">
  <diagram name="Page-1" id="3FDGtM6gTKQ8TaJbCZOP">
    <mxGraphModel dx="1050" dy="557" grid="1" gridSize="10" guides="1" tooltips="1" connect="1" arrows="1" fold="1" page="1" pageScale="1" pageWidth="827" pageHeight="1169" math="0" shadow="0">
      <root>
        <mxCell id="0" />
        <mxCell id="1" parent="0" />
        <mxCell id="gq9e8hRhuc8NeLjzWK2m-5" value="" style="edgeStyle=orthogonalEdgeStyle;rounded=0;orthogonalLoop=1;jettySize=auto;html=1;" edge="1" parent="1" source="gq9e8hRhuc8NeLjzWK2m-1" target="gq9e8hRhuc8NeLjzWK2m-4">
          <mxGeometry relative="1" as="geometry" />
        </mxCell>
        <mxCell id="gq9e8hRhuc8NeLjzWK2m-1" value="INICIO" style="strokeWidth=2;html=1;shape=mxgraph.flowchart.start_1;whiteSpace=wrap;" vertex="1" parent="1">
          <mxGeometry x="364" y="30" width="100" height="60" as="geometry" />
        </mxCell>
        <mxCell id="gq9e8hRhuc8NeLjzWK2m-2" value="FIM" style="strokeWidth=2;html=1;shape=mxgraph.flowchart.start_1;whiteSpace=wrap;" vertex="1" parent="1">
          <mxGeometry x="365" y="710" width="100" height="60" as="geometry" />
        </mxCell>
        <mxCell id="gq9e8hRhuc8NeLjzWK2m-11" value="" style="edgeStyle=orthogonalEdgeStyle;rounded=0;orthogonalLoop=1;jettySize=auto;html=1;" edge="1" parent="1" source="gq9e8hRhuc8NeLjzWK2m-4" target="gq9e8hRhuc8NeLjzWK2m-10">
          <mxGeometry relative="1" as="geometry" />
        </mxCell>
        <mxCell id="gq9e8hRhuc8NeLjzWK2m-4" value="NOME" style="shape=parallelogram;html=1;strokeWidth=2;perimeter=parallelogramPerimeter;whiteSpace=wrap;rounded=1;arcSize=12;size=0.23;" vertex="1" parent="1">
          <mxGeometry x="352" y="110" width="124" height="50" as="geometry" />
        </mxCell>
        <mxCell id="gq9e8hRhuc8NeLjzWK2m-28" value="" style="edgeStyle=orthogonalEdgeStyle;rounded=0;orthogonalLoop=1;jettySize=auto;html=1;" edge="1" parent="1" source="gq9e8hRhuc8NeLjzWK2m-6" target="gq9e8hRhuc8NeLjzWK2m-9">
          <mxGeometry relative="1" as="geometry" />
        </mxCell>
        <mxCell id="gq9e8hRhuc8NeLjzWK2m-6" value="NOTA" style="shape=parallelogram;html=1;strokeWidth=2;perimeter=parallelogramPerimeter;whiteSpace=wrap;rounded=1;arcSize=12;size=0.23;" vertex="1" parent="1">
          <mxGeometry x="353" y="360" width="124" height="40" as="geometry" />
        </mxCell>
        <mxCell id="gq9e8hRhuc8NeLjzWK2m-16" value="v" style="edgeStyle=orthogonalEdgeStyle;rounded=0;orthogonalLoop=1;jettySize=auto;html=1;exitX=0.5;exitY=1;exitDx=0;exitDy=0;entryX=0.5;entryY=0;entryDx=0;entryDy=0;" edge="1" parent="1" source="gq9e8hRhuc8NeLjzWK2m-7" target="gq9e8hRhuc8NeLjzWK2m-6">
          <mxGeometry relative="1" as="geometry" />
        </mxCell>
        <mxCell id="gq9e8hRhuc8NeLjzWK2m-24" style="edgeStyle=orthogonalEdgeStyle;rounded=0;orthogonalLoop=1;jettySize=auto;html=1;" edge="1" parent="1" source="gq9e8hRhuc8NeLjzWK2m-7">
          <mxGeometry relative="1" as="geometry">
            <mxPoint x="510" y="540" as="targetPoint" />
            <Array as="points">
              <mxPoint x="570" y="280" />
              <mxPoint x="570" y="540" />
            </Array>
          </mxGeometry>
        </mxCell>
        <mxCell id="gq9e8hRhuc8NeLjzWK2m-25" value="F" style="edgeLabel;html=1;align=center;verticalAlign=middle;resizable=0;points=[];" vertex="1" connectable="0" parent="gq9e8hRhuc8NeLjzWK2m-24">
          <mxGeometry x="-0.7985" y="-1" relative="1" as="geometry">
            <mxPoint as="offset" />
          </mxGeometry>
        </mxCell>
        <mxCell id="gq9e8hRhuc8NeLjzWK2m-7" value="CONTADOR=1, &amp;lt;=4, +1" style="rounded=1;whiteSpace=wrap;html=1;absoluteArcSize=1;arcSize=14;strokeWidth=2;" vertex="1" parent="1">
          <mxGeometry x="332" y="260" width="163" height="40" as="geometry" />
        </mxCell>
        <mxCell id="gq9e8hRhuc8NeLjzWK2m-15" style="edgeStyle=orthogonalEdgeStyle;rounded=0;orthogonalLoop=1;jettySize=auto;html=1;entryX=0;entryY=0.5;entryDx=0;entryDy=0;" edge="1" parent="1" source="gq9e8hRhuc8NeLjzWK2m-9" target="gq9e8hRhuc8NeLjzWK2m-7">
          <mxGeometry relative="1" as="geometry">
            <Array as="points">
              <mxPoint x="240" y="460" />
              <mxPoint x="240" y="280" />
            </Array>
          </mxGeometry>
        </mxCell>
        <mxCell id="gq9e8hRhuc8NeLjzWK2m-32" value="" style="edgeStyle=orthogonalEdgeStyle;rounded=0;orthogonalLoop=1;jettySize=auto;html=1;" edge="1" parent="1" source="gq9e8hRhuc8NeLjzWK2m-9" target="gq9e8hRhuc8NeLjzWK2m-21">
          <mxGeometry relative="1" as="geometry" />
        </mxCell>
        <mxCell id="gq9e8hRhuc8NeLjzWK2m-9" value="MEDIA=MEDIA + NOTA" style="rounded=1;whiteSpace=wrap;html=1;absoluteArcSize=1;arcSize=14;strokeWidth=2;" vertex="1" parent="1">
          <mxGeometry x="330" y="440" width="170" height="40" as="geometry" />
        </mxCell>
        <mxCell id="gq9e8hRhuc8NeLjzWK2m-13" value="" style="edgeStyle=orthogonalEdgeStyle;rounded=0;orthogonalLoop=1;jettySize=auto;html=1;" edge="1" parent="1" source="gq9e8hRhuc8NeLjzWK2m-10" target="gq9e8hRhuc8NeLjzWK2m-7">
          <mxGeometry relative="1" as="geometry" />
        </mxCell>
        <mxCell id="gq9e8hRhuc8NeLjzWK2m-10" value="MEDIA=0" style="rounded=1;whiteSpace=wrap;html=1;absoluteArcSize=1;arcSize=14;strokeWidth=2;" vertex="1" parent="1">
          <mxGeometry x="330.5" y="190" width="167" height="40" as="geometry" />
        </mxCell>
        <mxCell id="gq9e8hRhuc8NeLjzWK2m-34" value="" style="edgeStyle=orthogonalEdgeStyle;rounded=0;orthogonalLoop=1;jettySize=auto;html=1;" edge="1" parent="1" source="gq9e8hRhuc8NeLjzWK2m-20" target="gq9e8hRhuc8NeLjzWK2m-2">
          <mxGeometry relative="1" as="geometry" />
        </mxCell>
        <mxCell id="gq9e8hRhuc8NeLjzWK2m-20" value="NOME&amp;nbsp;&lt;br&gt;MEDIA" style="strokeWidth=2;html=1;shape=mxgraph.flowchart.display;whiteSpace=wrap;" vertex="1" parent="1">
          <mxGeometry x="365" y="610" width="100" height="60" as="geometry" />
        </mxCell>
        <mxCell id="gq9e8hRhuc8NeLjzWK2m-33" value="" style="edgeStyle=orthogonalEdgeStyle;rounded=0;orthogonalLoop=1;jettySize=auto;html=1;" edge="1" parent="1" source="gq9e8hRhuc8NeLjzWK2m-21" target="gq9e8hRhuc8NeLjzWK2m-20">
          <mxGeometry relative="1" as="geometry" />
        </mxCell>
        <mxCell id="gq9e8hRhuc8NeLjzWK2m-21" value="MEDIA=MEDIA / 4" style="rounded=1;whiteSpace=wrap;html=1;absoluteArcSize=1;arcSize=14;strokeWidth=2;" vertex="1" parent="1">
          <mxGeometry x="326" y="530" width="178" height="40" as="geometry" />
        </mxCell>
      </root>
    </mxGraphModel>
  </diagram>
</mxfile>
